<?xml version="1.0" standalone="no"?>
<!DOCTYPE svg PUBLIC "-//W3C//DTD SVG 20010904//EN"
 "http://www.w3.org/TR/2001/REC-SVG-20010904/DTD/svg10.dtd">
<svg version="1.0" xmlns="http://www.w3.org/2000/svg"
 width="512.000000pt" height="512.000000pt" viewBox="0 0 512.000000 512.000000"
 preserveAspectRatio="xMidYMid meet">
<metadata>
Created by potrace 1.14, written by Peter Selinger 2001-2017
</metadata>
<g transform="translate(0.000000,512.000000) scale(0.100000,-0.100000)"
fill="#000000" stroke="none">
<path d="M2288 4796 c-22 -16 -23 -27 -3 -20 8 4 15 1 15 -5 0 -10 -13 -15
-32 -12 -10 1 -30 -38 -38 -74 l-7 -30 -14 29 -14 29 -6 -24 c-3 -13 -11 -23
-17 -21 -7 1 -12 -1 -12 -5 0 -13 -43 -59 -67 -71 -30 -16 -36 -15 -29 5 6 16
6 16 -12 0 -10 -9 -26 -17 -34 -17 -28 0 -48 -12 -48 -27 0 -12 -3 -13 -14 -4
-11 9 -16 9 -22 -1 -8 -12 -10 -17 -13 -36 -2 -15 -68 -32 -101 -26 -21 5 -31
3 -27 -3 3 -5 -11 -15 -31 -22 -20 -8 -42 -18 -49 -23 -15 -12 -68 -124 -82
-174 -11 -40 -41 -76 -73 -87 -10 -4 -18 -2 -18 3 0 22 -19 8 -25 -19 -6 -29
-28 -42 -81 -49 -6 -1 -14 -22 -17 -47 -3 -31 -12 -52 -28 -66 -19 -17 -24
-30 -23 -71 1 -35 6 -55 17 -63 22 -16 22 -36 0 -28 -17 6 -17 5 0 -14 16 -19
14 -33 -5 -33 -5 0 -6 5 -3 10 3 6 2 10 -3 10 -5 0 -8 -15 -8 -34 1 -25 5 -32
16 -28 12 4 11 1 -2 -15 -23 -25 -24 -65 -3 -57 9 4 15 0 15 -10 0 -9 -5 -16
-12 -16 -6 0 -8 -3 -4 -7 4 -5 13 -8 19 -8 7 0 12 -4 13 -10 1 -11 6 -26 35
-100 13 -36 19 -75 19 -135 0 -47 4 -100 9 -118 6 -18 11 -61 13 -97 2 -54 -1
-68 -21 -95 -14 -20 -21 -40 -18 -53 25 -101 50 -187 54 -183 3 3 9 20 13 38
l7 33 12 -42 c7 -26 8 -56 3 -80 -14 -65 -9 -138 12 -158 15 -15 19 -16 27 -4
5 8 9 25 9 38 0 22 2 20 26 -14 14 -21 35 -46 47 -56 27 -23 138 -59 181 -59
17 0 26 -4 21 -8 -16 -10 -12 -23 16 -64 19 -28 29 -34 39 -27 10 6 11 12 5
17 -5 4 -10 21 -10 37 0 35 15 43 90 44 69 1 162 27 208 57 20 13 37 20 37 15
0 -5 -5 -11 -11 -13 -5 -2 -11 -12 -13 -23 -2 -12 -10 -19 -20 -17 -9 2 -16
-2 -16 -8 0 -5 7 -10 16 -10 13 0 14 -3 5 -13 -6 -8 -12 -24 -14 -36 -2 -13
-9 -26 -17 -31 -7 -4 -10 -15 -7 -24 3 -8 1 -18 -4 -22 -6 -3 -8 -15 -6 -25 3
-13 -5 -31 -24 -52 -17 -18 -29 -26 -27 -18 5 23 -20 24 -27 1 -10 -33 -42
-60 -62 -54 -16 5 -16 4 1 -6 15 -10 31 -9 78 6 32 9 61 21 64 26 14 22 51 4
82 -38 32 -44 34 -71 6 -60 -9 3 -14 -2 -14 -14 0 -15 -7 -20 -27 -21 -17 -1
-21 -3 -10 -6 27 -7 20 -19 -10 -18 -21 0 -27 -4 -25 -18 2 -11 -3 -17 -15
-17 -10 0 -14 4 -8 8 13 10 17 32 6 32 -6 0 -13 -5 -16 -10 -4 -6 -12 -7 -18
-3 -8 4 -7 1 1 -9 11 -14 10 -18 -5 -26 -10 -6 -22 -11 -28 -11 -5 -1 -19 -9
-31 -19 -11 -9 -34 -25 -50 -34 -16 -10 -28 -25 -27 -35 1 -9 -6 -23 -15 -31
-15 -12 -15 -13 6 -9 25 6 30 -8 7 -17 -13 -4 -14 -10 -5 -26 9 -16 8 -22 -4
-26 -12 -5 -13 -9 -3 -19 7 -7 15 -11 19 -8 5 2 3 -8 -2 -23 -9 -22 -8 -25 6
-20 13 5 15 2 9 -16 -4 -13 -7 -31 -6 -41 0 -9 -4 -15 -10 -12 -5 4 -9 2 -9
-3 0 -6 8 -13 17 -16 15 -6 15 -8 3 -16 -25 -16 -39 -11 -46 15 -6 24 -24 35
-24 15 0 -5 -7 -7 -15 -4 -8 4 -15 1 -15 -6 0 -6 4 -9 9 -5 19 11 20 -13 2
-29 -18 -17 -19 -16 -17 23 2 37 1 39 -14 26 -22 -20 -30 -19 -30 5 0 11 -5
20 -11 20 -8 0 -8 5 1 15 7 9 8 15 2 15 -43 0 3 -103 86 -190 13 -13 31 -38
39 -54 8 -16 24 -38 34 -49 10 -12 19 -27 19 -34 0 -7 4 -13 9 -13 10 0 76
-96 76 -110 0 -11 81 -119 142 -188 18 -21 33 -43 33 -49 0 -7 7 -13 15 -13 8
0 15 -6 15 -14 0 -8 24 -38 53 -68 56 -57 99 -112 110 -140 3 -10 12 -18 19
-18 6 0 3 -7 -8 -15 -19 -14 -18 -14 4 -15 12 0 22 -5 22 -10 0 -7 -20 -10
-50 -9 -58 3 -69 -4 -51 -33 12 -19 11 -24 -9 -40 -22 -18 -22 -18 -1 -18 12
0 21 5 21 11 0 6 7 17 15 25 13 14 15 14 15 -1 0 -11 5 -15 15 -12 8 4 17 2
20 -3 4 -6 -1 -10 -10 -10 -9 0 -13 -5 -9 -11 4 -6 -1 -9 -12 -8 -11 2 -29 -2
-41 -9 -12 -7 -29 -9 -38 -5 -14 5 -16 2 -11 -15 4 -12 2 -23 -5 -28 -9 -5 -7
-10 7 -15 18 -6 17 -8 -6 -17 -22 -9 -22 -11 -5 -12 19 -1 19 -1 1 -15 -18
-13 -17 -14 8 -21 14 -3 36 -4 49 -1 12 4 29 2 37 -3 12 -8 10 -10 -10 -11
-14 0 -44 -3 -68 -5 -62 -5 -205 45 -249 87 -18 18 -33 37 -33 42 0 5 -13 22
-29 38 -54 53 -74 127 -75 274 -1 104 3 139 17 174 10 24 16 45 14 47 -2 3
-21 -10 -43 -27 -21 -17 -77 -56 -124 -87 -47 -30 -128 -85 -180 -122 -52 -37
-129 -84 -170 -105 -41 -21 -93 -50 -115 -65 -81 -55 -213 -120 -301 -148
-113 -37 -107 -34 -289 -155 -177 -117 -208 -145 -239 -212 -27 -58 -90 -227
-100 -267 l-6 -28 2345 0 2345 0 -2 297 -3 296 -95 49 c-52 27 -111 60 -130
73 -41 27 -132 75 -142 75 -7 0 -47 24 -213 125 -171 105 -403 235 -447 251
-24 8 -59 28 -78 43 -20 16 -61 39 -90 51 -132 53 -153 65 -176 101 -23 37
-52 49 -117 49 l-31 0 27 -28 c15 -15 27 -35 27 -43 0 -7 -20 -34 -43 -59 -24
-25 -54 -61 -67 -80 -72 -104 -337 -340 -382 -340 -8 0 -23 -9 -33 -20 -14
-15 -31 -20 -70 -20 -42 0 -57 -5 -80 -26 -20 -18 -30 -22 -35 -14 -5 7 -10 8
-14 2 -3 -5 -16 -7 -29 -5 -17 3 -26 -2 -34 -19 l-12 -23 0 23 c-1 15 -7 22
-21 22 -17 0 -19 -5 -13 -32 l6 -31 -21 21 c-24 24 -29 37 -9 26 9 -6 9 -4 -1
8 -7 9 -22 14 -35 11 -19 -3 -18 -2 6 12 15 8 27 22 27 30 0 18 -20 20 -20 3
-1 -13 -50 41 -50 55 0 4 12 7 26 7 19 0 25 4 20 15 -3 8 -1 15 4 15 14 0 12
27 -2 33 -8 3 -6 6 4 6 10 1 17 4 17 8 -3 20 2 26 11 13 6 -10 10 -11 10 -2 0
6 10 12 23 12 20 1 20 2 5 11 -22 12 -24 39 -3 39 9 0 18 12 22 30 3 17 10 30
15 30 5 0 28 19 51 42 23 24 46 42 50 40 4 -1 7 6 5 15 -2 10 3 18 10 19 6 1
16 2 22 3 5 0 9 4 9 8 -1 5 0 11 1 16 1 4 3 10 5 15 1 4 8 21 15 37 8 17 14
39 14 50 1 11 7 19 14 17 8 -1 16 7 19 18 3 11 10 20 15 20 5 0 6 5 3 10 -3 6
-1 10 4 10 6 0 11 6 11 13 0 7 9 19 20 27 11 8 25 29 31 47 6 18 14 33 19 33
4 0 20 25 35 55 15 31 31 52 37 49 6 -4 8 2 4 17 -3 13 -3 18 0 12 11 -25 26
-13 19 16 -3 17 -2 32 4 36 18 11 12 35 -9 35 -11 0 -20 -7 -20 -15 0 -8 -4
-15 -10 -15 -5 0 -10 -7 -10 -15 0 -9 -7 -18 -15 -21 -8 -4 -12 -11 -8 -18 3
-6 -4 -2 -17 9 l-23 20 6 -32 c6 -31 5 -32 -13 -21 -16 10 -22 9 -32 -5 -13
-17 -14 -17 -35 3 -29 27 -35 25 -22 -6 7 -21 6 -31 -7 -45 -10 -11 -22 -19
-28 -19 -20 1 -98 81 -92 96 3 7 1 16 -4 19 -6 4 -10 0 -10 -9 0 -8 -6 -17
-12 -19 -10 -4 -10 -6 0 -6 6 -1 12 -6 12 -12 0 -6 -7 -8 -16 -5 -8 3 -12 2
-9 -4 9 -14 -29 -12 -43 2 -9 9 -12 9 -12 0 0 -7 -11 -12 -25 -12 -16 0 -25 6
-25 16 0 8 -5 12 -10 9 -6 -4 -9 -19 -8 -33 2 -17 -2 -26 -9 -25 -7 2 -10 -4
-7 -12 4 -10 0 -15 -12 -16 -11 0 -14 -3 -6 -6 6 -2 12 -9 12 -14 0 -6 -8 -5
-20 1 -16 9 -20 8 -20 -5 0 -9 5 -13 11 -10 6 4 5 -2 -3 -14 -15 -24 -24 -27
-30 -9 -4 12 -42 -23 -43 -40 -2 -27 -18 -50 -31 -45 -17 6 -19 33 -1 34 6 0
2 5 -11 11 -19 10 -25 8 -38 -10 -15 -22 -49 -20 -40 3 6 16 -44 17 -63 1 -11
-9 -13 -7 -7 10 5 17 2 23 -15 27 -14 4 -19 2 -15 -8 7 -20 -3 -25 -31 -14
-16 6 -22 6 -18 -1 4 -6 -11 -10 -39 -10 -32 0 -48 5 -55 18 -9 15 -11 15 -20
-8 l-10 -25 -2 25 c-1 14 -2 31 -3 39 0 8 -8 16 -16 18 -13 4 -13 3 0 -7 13
-10 13 -11 0 -7 -8 2 -15 11 -14 19 1 8 -5 15 -12 15 -7 0 -11 -4 -8 -8 5 -9
-47 -72 -54 -65 -2 3 5 15 17 27 26 28 26 28 -2 60 -27 31 -64 52 -77 44 -6
-3 -10 -1 -10 4 0 6 9 11 21 11 12 0 17 4 13 11 -3 6 -15 9 -25 6 -12 -3 -19
0 -19 9 0 8 -6 14 -13 14 -23 0 -64 43 -70 73 -4 25 0 31 29 44 19 10 35 26
39 41 3 13 9 22 12 19 3 -4 21 7 41 23 l35 28 22 -24 c13 -14 29 -23 36 -22 8
2 13 -3 11 -9 -1 -7 4 -13 10 -14 148 -9 178 -9 178 0 0 6 -8 11 -17 12 -55 2
-84 8 -98 22 -8 9 -24 19 -35 22 -11 4 -18 10 -15 15 3 5 -1 11 -7 14 -7 4 3
4 22 1 19 -3 36 -9 38 -13 3 -9 254 -6 305 3 35 7 37 6 37 -18 0 -20 -7 -28
-35 -37 -19 -6 -39 -9 -44 -6 -5 4 -12 2 -16 -4 -4 -6 -13 -5 -27 3 -16 9 -22
9 -25 -1 -3 -6 -9 -9 -15 -6 -5 3 -12 -3 -15 -15 -3 -12 -12 -21 -19 -21 -8 0
-14 -5 -14 -11 0 -5 -4 -7 -10 -4 -16 10 -130 14 -130 5 0 -5 -19 -10 -42 -12
-24 -2 -43 -9 -46 -17 -3 -8 0 -11 7 -7 6 4 11 3 11 -3 0 -5 11 -23 25 -40
l26 -30 -21 -21 c-42 -42 -26 -51 65 -36 48 8 87 9 123 2 36 -7 59 -6 71 1 9
6 31 8 50 5 30 -4 33 -2 31 19 -3 39 0 60 8 55 13 -8 38 18 39 42 2 24 -7 28
-25 10 -9 -9 -12 -9 -12 0 0 7 -12 12 -27 12 -48 0 -100 19 -100 36 0 13 8 15
46 11 56 -7 159 14 175 34 6 9 17 14 24 12 7 -3 10 1 6 10 -5 13 1 14 32 7 21
-5 40 -7 42 -6 2 2 20 -11 40 -29 32 -30 62 -39 46 -14 -3 5 -2 9 3 8 4 -1 20
1 34 5 20 6 26 14 27 36 0 16 -6 31 -14 34 -8 3 -14 12 -14 20 0 8 -15 23 -32
35 l-33 21 50 -5 50 -4 -48 45 c-27 24 -44 44 -38 44 5 0 13 -4 16 -10 3 -5
15 -10 26 -10 19 0 19 1 4 17 -12 11 -31 16 -62 14 -25 -1 -50 2 -56 7 -11 8
-46 19 -72 22 -5 1 -17 8 -26 16 -14 12 -18 13 -22 2 -4 -9 -6 -7 -6 4 -1 11
-6 15 -16 12 -11 -5 -13 -2 -9 11 6 15 4 15 -14 4 -11 -7 -18 -17 -15 -23 4
-5 1 -6 -6 -1 -8 4 -10 17 -6 32 5 22 3 25 -14 20 -34 -9 -24 16 19 46 22 16
40 33 40 39 0 7 4 7 13 1 6 -6 27 -15 45 -21 26 -9 32 -8 32 4 0 7 -7 14 -15
14 -9 0 -15 9 -15 25 0 28 -12 32 -30 10 -17 -20 -24 -19 -35 7 -16 37 -57 45
-99 19 -39 -25 -45 -45 -20 -72 15 -17 14 -18 -17 -26 -18 -5 -46 -7 -61 -5
-27 4 -28 6 -13 22 17 18 11 32 -11 23 -8 -3 -14 0 -14 7 0 6 -4 8 -10 5 -5
-3 -10 2 -10 12 -1 17 -2 17 -15 -1 -15 -20 -15 -20 -15 0 0 13 -3 15 -8 6 -7
-9 -18 -5 -47 18 -45 36 -58 37 -86 9 -45 -45 -53 34 -13 126 29 67 58 152
103 300 35 117 64 155 115 155 53 0 72 -25 117 -155 22 -66 52 -144 65 -173
13 -29 25 -58 25 -65 1 -7 5 2 8 18 4 17 4 34 -1 39 -18 22 -6 26 20 8 72 -52
242 -78 398 -62 185 19 235 74 292 320 15 68 21 77 55 99 30 20 37 30 37 56 0
18 -7 38 -15 45 -8 7 -15 10 -15 7 0 -3 -33 4 -72 15 -68 19 -93 25 -110 27
-4 1 -28 19 -53 41 -49 43 -70 53 -40 20 10 -11 14 -20 9 -20 -5 0 0 -7 10
-15 11 -8 15 -15 8 -15 -6 0 -25 17 -41 38 -17 21 -43 45 -58 53 -34 19 -108
25 -118 9 -4 -6 -20 -8 -42 -4 -24 4 -34 3 -30 -4 5 -6 -5 -7 -30 -2 -40 9
-57 5 -47 -12 4 -6 2 -8 -4 -4 -6 3 -13 2 -17 -4 -9 -14 -27 -2 -19 13 3 7 -2
3 -10 -7 -9 -11 -16 -15 -16 -9 0 17 -89 6 -128 -16 -27 -15 -52 -8 -52 14 0
8 -4 15 -10 15 -9 0 -14 -14 -11 -32 0 -5 -3 -8 -9 -8 -5 0 -10 -9 -10 -20 0
-11 -4 -20 -9 -20 -6 0 -6 -12 -1 -30 l9 -30 -60 0 c-32 0 -59 2 -59 5 0 3 7
17 16 30 9 14 12 25 8 25 -5 0 -3 4 5 9 10 7 12 19 6 47 -7 37 -8 38 -18 16
-8 -18 -16 -22 -31 -17 -55 17 -69 18 -61 4 7 -11 6 -12 -6 -3 -15 12 -86 26
-129 26 -13 0 -29 6 -35 13 -19 24 -261 39 -301 18 -13 -6 -25 -9 -28 -6 -3 3
-29 -18 -57 -47 -48 -50 -54 -53 -104 -54 -29 0 -56 2 -60 6 -9 9 5 169 14
164 4 -3 8 3 8 12 1 9 13 55 28 102 14 47 27 96 28 110 1 14 5 30 8 35 4 6 10
26 14 45 11 53 55 112 92 124 26 8 74 52 66 60 -4 3 1 6 10 6 9 0 17 5 17 11
0 5 4 8 9 4 5 -3 13 -1 16 5 4 6 23 8 47 5 26 -4 38 -3 34 4 -4 6 2 8 16 4 13
-3 52 -7 88 -9 90 -6 131 -14 126 -23 -3 -5 19 -1 50 7 30 9 50 18 45 21 -5 4
8 6 30 6 28 0 38 -3 34 -12 -3 -9 3 -8 19 2 15 10 34 13 49 10 18 -5 32 0 52
19 15 14 31 23 36 21 4 -3 15 5 23 17 9 12 16 19 16 15 0 -4 17 2 37 13 21 11
50 20 65 20 14 0 28 6 31 13 3 9 8 9 18 1 16 -12 122 -17 115 -5 -3 4 15 3 39
-2 25 -6 45 -15 45 -21 0 -6 7 -3 14 7 9 12 16 14 21 8 3 -6 0 -11 -7 -11 -7
-1 -1 -7 14 -15 20 -11 34 -12 52 -5 17 6 26 6 26 0 0 -6 6 -10 14 -10 8 0 16
-5 18 -10 2 -6 13 -12 26 -13 12 0 22 -7 22 -14 0 -7 5 -13 10 -13 6 0 10 5
10 12 0 6 8 2 18 -8 18 -21 30 -23 49 -11 17 11 27 -11 13 -28 -10 -12 -9 -16
3 -21 9 -3 21 -3 28 1 8 6 8 2 0 -12 -8 -16 -6 -24 12 -40 12 -11 28 -22 36
-25 10 -3 15 -22 17 -59 1 -30 7 -67 13 -82 14 -35 14 -54 1 -62 -8 -5 -7 -11
1 -21 6 -8 9 -14 5 -14 -3 0 0 -16 9 -36 8 -19 14 -38 14 -42 -3 -21 2 -32 13
-26 6 4 8 3 5 -3 -4 -6 0 -28 9 -49 20 -48 26 -73 25 -104 -1 -20 1 -22 9 -10
7 11 10 5 12 -25 2 -37 5 -85 7 -110 1 -7 27 -8 79 -4 42 5 81 4 85 0 5 -5 7
-24 5 -42 l-3 -34 -70 -3 -70 -3 7 -116 c9 -132 29 -196 55 -171 16 16 42 118
48 188 2 25 4 49 4 53 1 5 23 31 50 57 38 37 53 61 66 106 9 33 19 67 22 78 4
13 8 15 16 7 16 -16 23 -14 24 7 0 9 3 33 6 52 3 22 0 44 -10 59 -8 13 -11 26
-6 30 4 3 9 20 9 36 0 17 3 73 7 125 3 52 6 101 7 108 0 7 5 10 10 7 16 -10
12 25 -5 41 -8 9 -15 23 -15 32 1 15 2 15 11 -1 6 -9 14 -15 19 -12 6 4 5 14
-2 25 -15 23 -4 37 15 21 8 -6 21 -9 30 -5 8 3 25 1 36 -6 12 -6 21 -7 21 -3
-1 18 -37 54 -59 58 -13 2 -29 9 -35 15 -7 5 -15 8 -17 6 -2 -3 -14 13 -25 34
l-22 39 40 6 40 7 -28 26 -28 26 31 8 c17 4 36 15 43 23 11 14 10 14 -14 5
-37 -14 -46 -13 -46 5 0 8 6 12 14 9 8 -3 24 5 35 18 22 23 12 39 -12 20 -14
-12 -67 -4 -67 10 0 5 5 6 10 3 6 -3 10 -2 10 4 0 6 8 8 18 5 16 -5 16 -5 -1
6 -9 6 -22 8 -27 5 -6 -3 -10 1 -10 9 0 8 -9 20 -20 26 -11 6 -20 18 -20 27 0
14 -2 14 -16 -3 -9 -11 -14 -13 -11 -4 2 7 19 23 38 33 19 11 36 23 37 28 2 6
10 5 18 -2 11 -9 14 -8 14 4 0 8 -7 18 -16 21 -14 5 -16 16 -11 61 5 52 4 56
-21 69 -15 7 -33 11 -41 8 -8 -3 -11 0 -7 6 3 6 2 13 -3 16 -5 3 -8 14 -6 24
1 9 0 11 -2 4 -3 -8 -11 -11 -18 -8 -8 2 -19 -1 -25 -9 -28 -33 -160 43 -174
101 -4 13 -10 24 -15 24 -5 0 -20 17 -32 38 -33 52 -61 82 -71 76 -4 -3 -8 1
-8 9 0 35 -50 60 -172 88 -68 16 -135 29 -150 29 -15 0 -30 5 -33 10 -4 6 -11
8 -16 4 -5 -3 -24 9 -41 28 -27 28 -31 30 -26 11 8 -30 -3 -29 -36 3 l-26 27
0 -27 c0 -33 -28 -35 -102 -5 -69 27 -156 39 -206 28 -21 -4 -74 -25 -116 -45
-82 -38 -127 -40 -125 -6 0 10 3 12 6 4 7 -18 23 -4 23 22 0 12 5 27 11 33 11
11 5 33 -9 33 -4 0 -15 -7 -24 -14z m32 -126 c0 -5 -4 -10 -10 -10 -5 0 -10 5
-10 10 0 6 5 10 10 10 6 0 10 -4 10 -10z m625 -60 c0 -7 -6 -15 -12 -17 -8 -3
-13 4 -13 17 0 13 5 20 13 18 6 -3 12 -11 12 -18z m37 -62 c-7 -7 -12 -8 -12
-2 0 6 3 14 7 17 3 4 9 5 12 2 2 -3 -1 -11 -7 -17z m138 -25 c0 -7 -7 -13 -15
-13 -16 0 -19 9 -9 35 5 13 8 14 15 3 5 -7 9 -19 9 -25z m-510 -24 c0 -6 -4
-7 -10 -4 -5 3 -10 11 -10 16 0 6 5 7 10 4 6 -3 10 -11 10 -16z m888 -195 c22
-15 30 -44 12 -44 -5 0 -10 4 -10 9 0 5 -10 11 -22 13 -13 2 -24 11 -26 21 -4
21 16 22 46 1z m-74 -19 c-4 -8 -10 -12 -15 -9 -14 8 -10 24 6 24 9 0 12 -6 9
-15z m61 -35 c3 -5 -1 -10 -9 -10 -8 0 -18 5 -21 10 -3 6 1 10 9 10 8 0 18 -4
21 -10z m244 -53 c-16 -35 -31 -35 -23 1 7 24 6 26 -9 13 -12 -9 -17 -10 -17
-2 0 15 42 32 53 21 4 -4 3 -19 -4 -33z m-79 -36 c0 -6 -4 -13 -10 -16 -5 -3
-10 1 -10 9 0 9 5 16 10 16 6 0 10 -4 10 -9z m-1959 -18 c13 -16 12 -17 -3 -4
-10 7 -18 15 -18 17 0 8 8 3 21 -13z m2029 -18 c0 -8 -4 -15 -10 -15 -5 0 -10
7 -10 15 0 8 5 15 10 15 6 0 10 -7 10 -15z m-97 -10 c-3 -9 -8 -14 -10 -11 -3
3 -2 9 2 15 9 16 15 13 8 -4z m107 -135 c0 -5 -5 -10 -11 -10 -5 0 -7 5 -4 10
3 6 8 10 11 10 2 0 4 -4 4 -10z m-2311 -104 c-12 -13 -34 8 -25 23 5 8 11 7
21 -2 8 -7 10 -16 4 -21z m776 -26 c-7 -12 -49 -12 -85 0 -19 6 -11 8 33 9 36
1 56 -3 52 -9z m-38 -26 c-3 -3 -12 -4 -19 -1 -8 3 -5 6 6 6 11 1 17 -2 13 -5z
m118 -32 c-6 -7 -34 11 -29 19 3 5 11 3 19 -4 7 -6 12 -13 10 -15z m1015 -56
c0 -7 -7 -13 -15 -13 -17 0 -17 0 -9 21 7 18 24 12 24 -8z m454 -126 c-6 -5
-24 21 -24 34 0 6 6 1 14 -10 8 -10 12 -21 10 -24z m-1791 -397 c-7 -2 -19 -2
-25 0 -7 3 -2 5 12 5 14 0 19 -2 13 -5z m-239 -152 c4 -5 -3 -7 -14 -4 -12 3
-20 0 -20 -6 0 -7 5 -9 10 -6 12 8 13 -5 1 -24 -5 -8 -3 -24 6 -42 8 -16 12
-33 9 -38 -3 -5 1 -12 10 -15 12 -5 14 -14 9 -37 -6 -26 -4 -31 7 -26 8 3 21
1 29 -4 12 -7 12 -9 0 -9 -24 0 7 -28 40 -35 18 -4 35 -17 41 -31 6 -13 15
-24 21 -24 5 0 7 -7 3 -15 -3 -9 0 -15 10 -15 8 0 17 -7 20 -15 4 -8 12 -15
19 -15 19 0 28 -32 13 -46 -7 -7 -30 -14 -51 -16 -21 -1 -42 -9 -46 -17 -9
-14 -33 17 -70 91 -8 15 -29 42 -47 60 -18 18 -34 37 -34 42 0 4 -11 17 -25
28 -14 11 -25 26 -25 33 0 8 -6 12 -14 9 -10 -4 -14 8 -15 51 0 31 -3 60 -6
64 -6 11 34 47 65 60 32 13 47 13 54 2z m917 -6 c-18 -8 -36 -15 -40 -15 -13
1 45 29 59 29 8 0 0 -6 -19 -14z m-61 -25 c-8 -5 -19 -10 -25 -10 -5 0 -3 5 5
10 8 5 20 10 25 10 6 0 3 -5 -5 -10z m-585 -31 c-4 -6 -9 -8 -12 -5 -3 2 -16
1 -29 -4 -14 -6 -24 -6 -24 0 0 8 22 15 58 19 7 0 10 -4 7 -10z m1306 -36 c36
-67 -1 -279 -61 -346 -75 -86 -345 -97 -524 -22 -15 6 -17 5 -11 -5 5 -9 4
-11 -4 -6 -6 4 -9 12 -6 17 4 5 2 9 -4 9 -16 0 -73 90 -67 106 3 8 2 13 -3 10
-5 -3 -16 20 -25 52 -21 76 -20 96 3 50 17 -33 51 -77 51 -65 0 2 30 -27 68
-64 37 -38 73 -67 80 -64 7 3 10 0 7 -5 -4 -6 10 -11 32 -11 21 -1 47 -2 58
-3 11 -1 28 7 37 17 9 10 29 22 45 26 17 4 29 15 31 27 2 11 16 28 33 38 16 9
39 30 51 46 12 16 25 27 30 24 5 -3 7 0 6 7 -2 8 12 13 41 15 57 3 67 14 41
47 -22 28 -44 87 -32 87 4 0 13 -9 20 -20 13 -21 42 -17 42 6 0 8 7 14 17 14
15 0 15 1 0 18 -10 10 -15 21 -11 24 11 12 42 -5 55 -29z m-1381 17 c0 -5 -4
-10 -10 -10 -5 0 -10 5 -10 10 0 6 5 10 10 10 6 0 10 -4 10 -10z m1106 -7 c54
-18 100 -48 109 -71 9 -25 -2 -25 -27 0 -12 13 -25 23 -28 24 -3 0 -22 8 -44
17 -21 9 -44 17 -50 17 -7 0 -21 7 -32 15 -19 14 -19 14 2 15 11 0 43 -8 70
-17z m-637 -16 c-2 -1 -12 -9 -22 -16 -15 -12 -17 -12 -11 3 3 9 13 16 22 16
8 0 13 -1 11 -3z m-459 -67 c11 -6 24 -19 30 -30 9 -16 7 -18 -12 -15 -22 5
-48 30 -48 47 0 11 7 10 30 -2z m1134 -9 c19 -21 12 -48 -15 -56 -10 -4 -23
-14 -29 -24 -11 -21 -52 -32 -72 -20 -8 6 -1 9 20 9 21 0 31 4 27 11 -4 5 1
20 12 31 12 14 14 22 6 25 -8 3 -7 10 5 23 22 24 25 24 46 1z m-1424 -38 c0
-25 45 -115 53 -106 4 3 7 -1 7 -11 0 -25 72 -116 91 -116 10 0 19 -5 21 -11
2 -6 16 -11 31 -11 15 0 30 -5 33 -10 8 -12 -75 -1 -144 19 -55 17 -72 33
-111 110 -14 28 -21 61 -21 98 0 48 2 55 20 55 12 0 20 -7 20 -17z m336 -14
c-6 9 -5 12 4 9 8 -2 16 -10 18 -17 4 -11 -23 -11 -68 -2 -3 1 2 5 10 11 9 6
20 5 29 -3 12 -10 13 -9 7 2z m265 -157 c-16 -29 -84 -80 -100 -74 -9 3 -11 0
-6 -8 5 -9 2 -10 -15 -5 -13 4 -20 3 -17 -2 3 -5 -32 -10 -79 -11 -46 -1 -84
1 -84 6 0 13 47 35 58 28 6 -3 16 -1 24 6 16 16 80 40 72 27 -3 -5 -1 -9 4 -9
6 0 13 7 16 17 6 15 8 15 19 -2 11 -15 15 -15 28 -3 20 19 83 58 87 53 2 -2
-1 -12 -7 -23z m-314 -98 c-3 -3 -12 -4 -19 -1 -8 3 -5 6 6 6 11 1 17 -2 13
-5z m753 -474 c0 -14 -28 -1 -34 16 -4 12 -2 12 14 4 11 -6 20 -15 20 -20z
m120 -20 c0 -5 -4 -10 -10 -10 -5 0 -10 5 -10 10 0 6 5 10 10 10 6 0 10 -4 10
-10z m-215 -40 c6 -4 25 -11 43 -15 18 -3 30 -11 26 -16 -3 -5 2 -9 10 -9 15
0 32 -18 24 -26 -3 -2 -30 5 -62 16 -44 15 -79 19 -158 17 -74 -1 -102 1 -105
11 -3 6 -16 12 -29 12 -14 0 -22 4 -19 10 3 5 42 8 88 6 45 -1 91 0 102 4 20
7 64 2 80 -10z m270 10 c3 -6 -1 -7 -9 -4 -18 7 -21 14 -7 14 6 0 13 -4 16
-10z m-560 -29 c-8 -13 -35 -15 -35 -2 0 5 8 11 18 13 21 5 26 2 17 -11z m625
-21 c0 -5 -2 -10 -4 -10 -3 0 -8 5 -11 10 -3 6 -1 10 4 10 6 0 11 -4 11 -10z
m-246 -105 c-4 -8 -8 -15 -10 -15 -2 0 -4 7 -4 15 0 8 4 15 10 15 5 0 7 -7 4
-15z m324 -278 c8 -10 6 -13 -9 -13 -10 0 -19 6 -19 13 0 7 4 13 9 13 5 0 13
-6 19 -13z m-156 -35 c-8 -2 -9 -9 -2 -21 12 -23 -12 -62 -25 -41 -4 7 -2 16
6 20 10 7 10 12 1 22 -13 17 4 42 22 31 6 -4 6 -8 -2 -11z m115 -7 c-15 -16
-22 -11 -13 10 3 9 10 13 16 10 6 -4 5 -11 -3 -20z m-776 -18 c-1 -12 -15 -9
-19 4 -3 6 1 10 8 8 6 -3 11 -8 11 -12z m684 -75 c1 -12 -2 -22 -7 -22 -4 0
-8 4 -8 9 0 5 -3 17 -7 27 -4 11 -2 15 7 12 7 -2 14 -14 15 -26z m-95 -28 c0
-22 -2 -24 -14 -14 -8 6 -12 18 -9 26 9 23 23 16 23 -12z m-240 6 c0 -5 -4
-10 -10 -10 -5 0 -10 5 -10 10 0 6 5 10 10 10 6 0 10 -4 10 -10z m77 -32 c-3
-8 -6 -5 -6 6 -1 11 2 17 5 13 3 -3 4 -12 1 -19z m153 -508 c0 -5 -8 -10 -17
-10 -15 0 -16 2 -3 10 19 12 20 12 20 0z m-30 -75 c0 -8 -2 -15 -4 -15 -2 0
-6 7 -10 15 -3 8 -1 15 4 15 6 0 10 -7 10 -15z m-195 -103 c-3 -3 -11 0 -18 7
-9 10 -8 11 6 5 10 -3 15 -9 12 -12z m2270 -12 c3 -5 2 -10 -4 -10 -5 0 -13 5
-16 10 -3 6 -2 10 4 10 5 0 13 -4 16 -10z m-2225 -31 c0 -6 -4 -7 -10 -4 -5 3
-10 11 -10 16 0 6 5 7 10 4 6 -3 10 -11 10 -16z m86 -78 c-6 -9 -95 -32 -119
-30 -16 1 83 36 106 38 10 0 16 -3 13 -8z"/>
<path d="M3205 2890 c3 -5 8 -10 11 -10 2 0 4 5 4 10 0 6 -5 10 -11 10 -5 0
-7 -4 -4 -10z"/>
<path d="M3618 4353 c7 -3 16 -2 19 1 4 3 -2 6 -13 5 -11 0 -14 -3 -6 -6z"/>
<path d="M3690 4320 c0 -5 7 -10 15 -10 8 0 15 5 15 10 0 6 -7 10 -15 10 -8 0
-15 -4 -15 -10z"/>
<path d="M3790 4120 c0 -5 5 -10 10 -10 6 0 10 5 10 10 0 6 -4 10 -10 10 -5 0
-10 -4 -10 -10z"/>
<path d="M3746 4074 c-9 -24 -7 -28 9 -14 17 14 20 30 6 30 -5 0 -12 -7 -15
-16z"/>
<path d="M3820 3810 c0 -5 5 -10 10 -10 6 0 10 5 10 10 0 6 -4 10 -10 10 -5 0
-10 -4 -10 -10z"/>
<path d="M3321 3504 c0 -11 3 -14 6 -6 3 7 2 16 -1 19 -3 4 -6 -2 -5 -13z"/>
<path d="M1695 3139 c-11 -17 1 -21 15 -4 8 9 8 15 2 15 -6 0 -14 -5 -17 -11z"/>
<path d="M3732 2938 c-30 -21 -33 -26 -27 -63 3 -22 8 -73 12 -112 3 -40 10
-73 14 -73 27 0 69 258 44 267 -6 2 -25 -7 -43 -19z"/>
<path d="M3579 2754 c-10 -13 -10 -21 1 -47 22 -53 24 -124 5 -153 -21 -32
-18 -34 23 -17 38 15 57 53 67 129 6 45 4 52 -20 77 -31 31 -56 34 -76 11z"/>
<path d="M3512 2530 c0 -14 2 -19 5 -12 2 6 2 18 0 25 -3 6 -5 1 -5 -13z"/>
<path d="M2880 2492 c0 -12 19 -26 26 -19 2 2 -2 10 -11 17 -9 8 -15 8 -15 2z"/>
<path d="M3502 2453 c-10 -35 -10 -49 -1 -57 8 -8 10 -6 5 9 -3 11 1 33 9 49
9 16 12 33 7 38 -4 4 -13 -13 -20 -39z"/>
<path d="M2120 2444 c0 -9 5 -14 12 -12 18 6 21 28 4 28 -9 0 -16 -7 -16 -16z"/>
<path d="M1900 2365 c0 -8 4 -15 10 -15 5 0 7 7 4 15 -4 8 -8 15 -10 15 -2 0
-4 -7 -4 -15z"/>
<path d="M3480 2276 c0 -7 9 -16 19 -19 17 -4 18 -2 8 14 -14 22 -27 25 -27 5z"/>
<path d="M2055 2121 c-17 -7 -15 -9 12 -13 26 -4 30 -2 22 9 -7 7 -12 13 -13
12 0 0 -10 -4 -21 -8z"/>
<path d="M2005 2080 c1 -8 -7 -20 -19 -27 -14 -8 -16 -12 -6 -12 16 0 38 15
58 40 11 15 10 17 -11 15 -16 0 -24 -6 -22 -16z"/>
<path d="M3385 1950 c-3 -5 -1 -10 4 -10 6 0 11 5 11 10 0 6 -2 10 -4 10 -3 0
-8 -4 -11 -10z"/>
<path d="M3339 1868 c-7 -18 -22 -45 -33 -60 -11 -15 -17 -31 -13 -34 10 -10
47 26 47 45 0 9 7 27 16 40 11 15 13 26 7 32 -7 7 -15 -2 -24 -23z"/>
<path d="M3350 1829 c0 -5 5 -7 10 -4 6 3 10 8 10 11 0 2 -4 4 -10 4 -5 0 -10
-5 -10 -11z"/>
<path d="M1775 1810 c3 -5 11 -10 16 -10 6 0 7 5 4 10 -3 6 -11 10 -16 10 -6
0 -7 -4 -4 -10z"/>
<path d="M3143 1716 c0 -14 6 -27 14 -30 11 -4 13 -1 8 14 -4 13 -2 20 7 20
10 0 9 3 -2 10 -23 15 -27 12 -27 -14z"/>
<path d="M2935 1720 c3 -5 8 -10 11 -10 2 0 4 5 4 10 0 6 -5 10 -11 10 -5 0
-7 -4 -4 -10z"/>
<path d="M3055 1720 c3 -5 8 -10 11 -10 2 0 4 5 4 10 0 6 -5 10 -11 10 -5 0
-7 -4 -4 -10z"/>
<path d="M2980 1691 c0 -6 4 -13 10 -16 6 -3 7 1 4 9 -7 18 -14 21 -14 7z"/>
<path d="M2810 924 c0 -17 14 -18 28 -1 8 10 6 13 -9 14 -10 1 -19 -5 -19 -13z"/>
<path d="M2752 866 c7 -8 15 -12 17 -11 5 6 -10 25 -20 25 -5 0 -4 -6 3 -14z"/>
</g>
</svg>
